<?xml version="1.0" standalone="no"?>
<!DOCTYPE svg PUBLIC "-//W3C//DTD SVG 20010904//EN"
 "http://www.w3.org/TR/2001/REC-SVG-20010904/DTD/svg10.dtd">
<svg version="1.0" xmlns="http://www.w3.org/2000/svg"
 width="400.000000pt" height="400.000000pt" viewBox="0 0 400.000000 400.000000"
 preserveAspectRatio="xMidYMid meet">
<metadata>
Created by potrace 1.15, written by Peter Selinger 2001-2017
</metadata>
<g transform="translate(0.000000,400.000000) scale(0.100000,-0.100000)"
fill="#000000" stroke="none">
<path d="M3098 3560 c-53 -44 -78 -83 -88 -137 -32 -181 -28 -166 -80 -276
-35 -74 -97 -168 -247 -377 -55 -76 -233 -293 -280 -341 l-54 -55 22 -20 c27
-25 59 -91 59 -124 0 -30 25 -70 44 -70 8 0 42 35 77 78 123 151 184 218 349
383 161 161 269 251 360 300 25 13 47 27 50 30 3 3 48 21 100 39 110 37 158
65 195 114 51 68 41 132 -32 196 -37 32 -153 41 -204 16 -18 -9 -33 -16 -34
-16 -2 0 4 18 11 41 30 86 -15 178 -115 232 -49 26 -91 22 -133 -13z"/>
<path d="M2042 2279 c-45 -5 -117 -19 -160 -30 -42 -12 -86 -23 -97 -26 -11
-3 -34 -11 -52 -19 -17 -8 -36 -14 -42 -14 -6 0 -19 -4 -29 -10 -31 -17 -111
-50 -121 -50 -18 0 -13 -17 20 -65 58 -86 47 -217 -21 -253 -16 -8 -45 -11
-77 -8 -57 5 -61 2 -37 -32 20 -30 30 -158 15 -203 -15 -47 -51 -82 -99 -98
-36 -12 -48 -12 -99 4 -32 10 -78 33 -102 51 -24 19 -47 34 -50 34 -3 0 -6
-28 -6 -62 0 -88 -40 -135 -119 -144 -55 -7 -191 95 -216 161 -12 31 -39 43
-51 24 -12 -20 -28 -43 -72 -102 -37 -49 -77 -122 -77 -139 0 -4 339 -8 753
-8 l753 0 47 98 c56 119 90 198 134 322 l34 95 -6 -80 c-14 -177 -43 -330 -80
-417 -6 -16 0 -18 63 -18 l70 0 12 48 c6 26 18 79 26 117 8 39 19 86 25 105 6
19 13 142 16 272 l5 238 -31 32 c-17 17 -31 40 -31 49 0 10 -4 21 -10 24 -5 3
-10 19 -10 34 0 55 -26 72 -115 76 -44 2 -117 -1 -163 -6z"/>
</g>
</svg>
